<svg xmlns="http://www.w3.org/2000/svg" viewBox="0 0 64 64" role="img" aria-label="Servify logo">
  <defs>
    <linearGradient id="servifyGradient" x1="0" y1="0" x2="1" y2="1">
      <stop offset="0%" stop-color="#ff6a47" />
      <stop offset="100%" stop-color="#ef4444" />
    </linearGradient>
  </defs>
  <rect width="64" height="64" rx="14" fill="#111827" />
  <path d="M48 20c-2.9-2.7-7-4-12.3-4-7.1 0-12 2.2-15 6.4-1.5 2.2-2.3 4.8-2.3 7.7 0 5.1 2.4 8.5 8.2 10l8.4 2.2c3.2.8 4.4 1.8 4.4 3.5 0 2.3-2.2 3.7-6.4 3.7-4.5 0-8.4-1.4-11.9-4.4l-4.6 5.8C20.4 55.5 26 58 33.2 58c6.4 0 11.4-1.7 14.8-5 2.3-2.2 3.5-5.1 3.5-8.5 0-5.7-2.9-9-9.2-10.7l-8-2.1c-2.5-.6-3.7-1.6-3.7-3 0-2.1 2.2-3.4 5.8-3.4 3.4 0 6.3 1 9 3.2L48 20z" fill="url(#servifyGradient)" />
</svg>
